<svg width="22" height="22" viewBox="0 0 22 22" fill="none" xmlns="http://www.w3.org/2000/svg">
<g clip-path="url(#clip0)">
<path fill-rule="evenodd" clip-rule="evenodd" d="M17.2056 17.9348L15.2488 3.6829C15.1693 3.10215 14.7352 2.64158 14.185 2.5078V0.909901C14.185 0.408207 13.777 4.0769e-06 13.2753 4.0769e-06L10.414 0L8.75587 4.0769e-06C8.25417 4.0769e-06 7.84614 0.408207 7.84614 0.909901V2.5078C7.29593 2.64158 6.86188 3.10215 6.78216 3.6829L4.82557 17.9348C4.76313 18.3889 4.92695 18.8463 5.26381 19.1582C5.60068 19.47 7.84614 19.5316 7.84614 19.5316V21.0901C7.84614 21.5918 8.25417 22 8.75587 22H13.2753C13.777 22 14.185 21.5918 14.185 21.0901V19.5316H15.813C16.2192 19.5316 16.6054 19.3561 16.8724 19.0499C17.1393 18.7436 17.2608 18.3373 17.2056 17.9348ZM13.2753 0.644535H10.414H8.75587C8.60967 0.644535 8.49067 0.763539 8.49067 0.909901V2.46836H13.5405V0.909901C13.5405 0.763539 13.4215 0.644535 13.2753 0.644535ZM5.46406 18.0224C5.43032 18.2684 5.51911 18.5162 5.70173 18.6852C5.88434 18.8542 15.813 18.8871 15.813 18.8871C16.033 18.8871 16.242 18.7919 16.3867 18.6263C16.5312 18.4605 16.597 18.2402 16.5671 18.0224L16.5272 17.7317L5.65272 16.6484L5.46406 18.0224ZM13.2753 21.3555C13.4215 21.3555 13.5405 21.2365 13.5405 21.0901V19.5316H8.49067V21.0901C8.49067 21.2365 8.60967 21.3555 8.75587 21.3555H13.2753ZM6.81791 8.16172L15.3296 9.00968L15.149 7.6946L6.99347 6.88205L6.81791 8.16172ZM15.6198 11.1227L15.4199 9.66646L6.73012 8.80071L6.53559 10.2175L15.6198 11.1227ZM15.8753 12.9841L15.7099 11.7793L6.44797 10.8565L6.28684 12.0291L15.8753 12.9841ZM7.08126 6.24306L15.059 7.03782L14.8784 5.72257L7.25699 4.9634L7.08126 6.24306ZM15.9656 13.6409L6.19922 12.6681L6.02819 13.9138L16.1413 14.9212L15.9656 13.6409ZM13.8562 3.11289H8.17495C7.79645 3.11289 7.47217 3.39554 7.42081 3.77051L7.34478 4.32441L14.7883 5.06595L14.6104 3.77051C14.5588 3.39554 14.2347 3.11289 13.8562 3.11289ZM5.9404 14.5528L5.7405 16.0094L16.437 17.0749L16.2314 15.578L5.9404 14.5528Z" fill="#141414"/>
</g>
<defs>
<clipPath id="clip0">
<rect width="22" height="22" fill="white"/>
</clipPath>
</defs>
</svg>
