<svg width="22" height="22" viewBox="0 0 22 22" fill="none" xmlns="http://www.w3.org/2000/svg">
<g clip-path="url(#clip0)">
<path d="M20.845 14.8594L11.6445 9.5278V9.13111C11.6445 8.67873 11.9027 8.25794 12.3183 8.03296C13.2546 7.52614 13.8111 6.54993 13.7708 5.48534C13.7161 4.04628 12.5462 2.87615 11.1074 2.82154C10.3461 2.79232 9.62513 3.06715 9.07728 3.5945C8.52908 4.12225 8.22718 4.83192 8.22718 5.59272C8.22718 5.94867 8.51576 6.23725 8.87171 6.23725C9.22767 6.23725 9.51625 5.94867 9.51625 5.59272C9.51625 5.18546 9.67785 4.80566 9.97129 4.52314C10.2644 4.24101 10.65 4.09376 11.0585 4.10966C11.8278 4.13887 12.4534 4.76463 12.4826 5.53424C12.5043 6.10474 12.2062 6.62779 11.7047 6.89931C10.8725 7.3498 10.3555 8.20496 10.3555 9.13111V9.5278L1.15504 14.8594C0.442578 15.2723 0 16.0404 0 16.8639C0 18.1413 1.03907 19.1805 2.31627 19.1805H19.6837C20.9609 19.1805 22 18.1413 22 16.8639C22 16.0403 21.5574 15.2723 20.845 14.8594ZM19.6837 17.8915H2.31627C1.74986 17.8915 1.28906 17.4305 1.28906 16.8639C1.28906 16.4986 1.48534 16.1579 1.80138 15.9748L11 10.6442L20.1986 15.9748C20.5146 16.1579 20.7109 16.4986 20.7109 16.8639C20.7109 17.4305 20.2501 17.8915 19.6837 17.8915Z" fill="#141414"/>
</g>
<defs>
<clipPath id="clip0">
<rect width="22" height="22" fill="white"/>
</clipPath>
</defs>
</svg>
