<svg width="35" height="48" viewBox="0 0 35 48" fill="none" xmlns="http://www.w3.org/2000/svg">
<path d="M1.01196 28.5V1H33.012V28.5H1.01196Z" stroke="white" stroke-width="2"/>
<path d="M15.012 36.5H34" stroke="white" stroke-width="2"/>
<path fill-rule="evenodd" clip-rule="evenodd" d="M8.51196 21V8.5H25.512V21L21.012 17L17.012 21L13.012 17L8.51196 21ZM14.1086 10.5955L13.2907 11.764L14.512 12.236L14.131 13.2472L13.0106 12.6404L13.145 14H11.8789L12.0246 12.6292L10.8929 13.2584L10.512 12.2247L11.7445 11.7528L10.9153 10.5955L11.9237 10L12.5176 11.236L13.1226 10L14.1086 10.5955ZM22.2907 11.764L23.1086 10.5955L22.1226 10L21.5176 11.236L20.9237 10L19.9153 10.5955L20.7445 11.7528L19.512 12.2247L19.8929 13.2584L21.0246 12.6292L20.8789 14H22.145L22.0106 12.6404L23.131 13.2472L23.512 12.236L22.2907 11.764Z" fill="white"/>
<path d="M0 31.52H1.312V37.104H2.84V38H0V31.52Z" fill="white"/>
<path d="M4.39694 31.52H5.86094L7.10894 38H5.89294L5.65294 36.576H4.62894L4.38094 38H3.14094L4.39694 31.52ZM5.52494 35.76L5.13294 33.152L4.74894 35.76H5.52494Z" fill="white"/>
<path d="M7.76562 31.52H9.41362C10.043 31.52 10.531 31.6427 10.8776 31.888C11.2243 32.128 11.3976 32.5653 11.3976 33.2C11.3976 33.584 11.315 33.888 11.1496 34.112C10.9896 34.3307 10.7576 34.4667 10.4536 34.52C10.8323 34.5733 11.115 34.7333 11.3016 35C11.4936 35.2667 11.5896 35.632 11.5896 36.096C11.5896 37.3653 10.9603 38 9.70162 38H7.76562V31.52ZM9.41362 34.136C9.73362 34.136 9.95229 34.064 10.0696 33.92C10.187 33.776 10.2456 33.5467 10.2456 33.232C10.2456 32.944 10.171 32.7387 10.0216 32.616C9.87229 32.488 9.64029 32.424 9.32563 32.424H9.07763V34.136H9.41362ZM9.45362 37.072C9.77362 37.072 9.99762 36.992 10.1256 36.832C10.259 36.672 10.3256 36.4187 10.3256 36.072C10.3256 35.6987 10.2563 35.432 10.1176 35.272C9.98429 35.1067 9.75496 35.024 9.42963 35.024H9.07763V37.072H9.45362Z" fill="white"/>
<path d="M0 40.52H2.736V41.424H1.312V43.168H2.52V44.088H1.312V47H0V40.52Z" fill="white"/>
<path d="M4.39694 40.52H5.86094L7.10894 47H5.89294L5.65294 45.576H4.62894L4.38094 47H3.14094L4.39694 40.52ZM5.52494 44.76L5.13294 42.152L4.74894 44.76H5.52494Z" fill="white"/>
<path d="M7.69362 40.52H8.61362L10.0536 43.888V40.52H11.1496V47H10.2616L8.82162 43.416V47H7.69362V40.52Z" fill="white"/>
<path d="M12.5896 41.496H11.5896V40.52H14.9016V41.496H13.9176V47H12.5896V41.496Z" fill="white"/>
<path d="M16.288 40.52H17.752L19 47H17.784L17.544 45.576H16.52L16.272 47H15.032L16.288 40.52ZM17.416 44.76L17.024 42.152L16.64 44.76H17.416Z" fill="white"/>
<path d="M21.3333 47.088C20.736 47.088 20.288 46.9253 19.9893 46.6C19.6906 46.2693 19.528 45.76 19.5013 45.072L20.6373 44.88C20.648 45.2907 20.704 45.5947 20.8053 45.792C20.912 45.984 21.0693 46.08 21.2773 46.08C21.432 46.08 21.544 46.032 21.6133 45.936C21.6826 45.8347 21.7173 45.7067 21.7173 45.552C21.7173 45.296 21.6586 45.08 21.5413 44.904C21.4293 44.7227 21.2506 44.5253 21.0053 44.312L20.3333 43.728C20.0666 43.504 19.8613 43.264 19.7173 43.008C19.5786 42.752 19.5093 42.4453 19.5093 42.088C19.5093 41.56 19.664 41.1547 19.9733 40.872C20.288 40.584 20.72 40.44 21.2693 40.44C21.856 40.44 22.264 40.6107 22.4933 40.952C22.7226 41.288 22.8533 41.7173 22.8853 42.24L21.7413 42.408C21.7306 42.0667 21.6906 41.816 21.6213 41.656C21.5573 41.4907 21.4266 41.408 21.2293 41.408C21.0853 41.408 20.9733 41.464 20.8933 41.576C20.8133 41.6827 20.7733 41.8107 20.7733 41.96C20.7733 42.1733 20.8186 42.3547 20.9093 42.504C21.0053 42.648 21.1546 42.808 21.3573 42.984L22.0133 43.56C22.3226 43.832 22.5653 44.12 22.7413 44.424C22.9173 44.7227 23.0053 45.0747 23.0053 45.48C23.0053 45.7893 22.936 46.0667 22.7973 46.312C22.6586 46.552 22.4613 46.7413 22.2053 46.88C21.9546 47.0187 21.664 47.088 21.3333 47.088Z" fill="white"/>
<path d="M23.98 40.52H25.38L26.18 44.608L27.028 40.52H28.38L28.5 47H27.54L27.436 42.6L26.604 47H25.788L24.932 42.576L24.836 47H23.868L23.98 40.52Z" fill="white"/>
<path d="M30.936 40.52H32.4L33.648 47H32.432L32.192 45.576H31.168L30.92 47H29.68L30.936 40.52ZM32.064 44.76L31.672 42.152L31.288 44.76H32.064Z" fill="white"/>
</svg>
